<?xml version="1.0" encoding="utf-8"?>
<!-- Generator: Adobe Illustrator 22.1.0, SVG Export Plug-In . SVG Version: 6.00 Build 0)  -->
<svg version="1.1" id="Лого" xmlns="http://www.w3.org/2000/svg" xmlns:xlink="http://www.w3.org/1999/xlink" x="0px" y="0px"
	 viewBox="0 0 3000 2000" style="enable-background:new 0 0 3000 2000;" xml:space="preserve">
<style type="text/css">
	.st0{display:none;fill:#3C6689;}
	.st1{font-family:'Montserrat-ExtraBold';}
	.st2{font-size:67px;}
	.st3{letter-spacing:6;}
	.st4{fill:#3C6689;}
	.st5{fill:none;}
	.st6{display:none;fill:#F7562E;}
	.st7{font-size:335.149px;}
	.st8{fill:#F7562E;}
	.st9{fill:url(#SVGID_1_);}
	.st10{fill:url(#SVGID_2_);}
	.st11{fill:url(#SVGID_3_);}
	.st12{fill:url(#SVGID_4_);}
	.st13{fill:url(#SVGID_5_);}
	.st14{fill:url(#SVGID_6_);}
	.st15{fill:url(#SVGID_7_);}
	.st16{fill:url(#SVGID_8_);}
	.st17{fill:url(#SVGID_9_);}
	.st18{fill:url(#SVGID_10_);}
	.st19{fill:url(#SVGID_11_);}
	.st20{fill:url(#SVGID_12_);}
	.st21{fill:url(#SVGID_13_);}
	.st22{fill:url(#SVGID_14_);}
	.st23{fill:url(#SVGID_15_);}
	.st24{fill:url(#SVGID_16_);}
	.st25{fill:url(#SVGID_17_);}
	.st26{fill:url(#SVGID_18_);}
	.st27{fill:url(#SVGID_19_);}
	.st28{fill:url(#SVGID_20_);}
	.st29{fill:url(#SVGID_21_);}
	.st30{fill:url(#SVGID_22_);}
	.st31{fill:url(#SVGID_23_);}
	.st32{fill:url(#SVGID_24_);}
	.st33{fill:url(#SVGID_25_);}
	.st34{fill:url(#SVGID_26_);}
	.st35{fill:url(#SVGID_27_);}
	.st36{fill:url(#SVGID_28_);}
	.st37{fill:url(#SVGID_29_);}
	.st38{fill:url(#SVGID_30_);}
	.st39{fill:url(#SVGID_31_);}
	.st40{fill:url(#SVGID_32_);}
	.st41{display:none;fill:#1B95D2;}
	.st42{fill:url(#_x31__град_1_);}
</style>
<g id="ТЕКСТ">
	<text id="_x32__слоган_1_" transform="matrix(1 0 0 1 1044.7017 1185.9355)" class="st0 st1 st2 st3">ЛЁГКИЙ ПОИСК НУЖНОГО ОБУЧЕНИЯ</text>
	<g>
		<path class="st4" d="M1093.5,1139v46.9h-13.1v-36.4h-13.5l-0.3,7.6c-0.2,6.7-0.8,12.2-1.6,16.3s-2.4,7.4-4.5,9.7
			c-2.1,2.3-5.1,3.5-8.9,3.5c-1.8,0-3.8-0.3-6-0.8l0.7-10.9c0.6,0.1,1.2,0.2,1.8,0.2c1.7,0,3.1-0.7,4-2.1c0.9-1.4,1.6-3.3,2-5.8
			c0.4-2.5,0.7-5.7,0.8-9.7l0.7-18.7H1093.5z"/>
		<path class="st4" d="M1147.3,1175.7v10.3h-37.7V1139h36.8v10.3h-23.7v7.9h20.8v9.9h-20.8v8.6H1147.3z M1117.2,1133.8
			c-1-1-1.5-2.2-1.5-3.8s0.5-2.8,1.5-3.8c1-1,2.3-1.5,3.8-1.5c1.5,0,2.8,0.5,3.8,1.5c1,1,1.5,2.3,1.5,3.8s-0.5,2.8-1.5,3.8
			c-1,1-2.3,1.4-3.8,1.4C1119.4,1135.3,1118.2,1134.8,1117.2,1133.8z M1131.4,1133.8c-1-1-1.5-2.2-1.5-3.8s0.5-2.8,1.5-3.8
			c1-1,2.3-1.5,3.8-1.5c1.5,0,2.8,0.5,3.8,1.5c1,1,1.5,2.3,1.5,3.8s-0.5,2.8-1.5,3.8c-1,1-2.3,1.4-3.8,1.4
			C1133.6,1135.3,1132.4,1134.8,1131.4,1133.8z"/>
		<path class="st4" d="M1195.2,1149.6H1174v36.4h-13.1V1139h34.4L1195.2,1149.6z"/>
		<path class="st4" d="M1226.3,1168h-6v18h-13.2V1139h13.2v18.2h6.4l11.2-18.2h13.9l-14.7,22.6l14.8,24.3H1237L1226.3,1168z"/>
		<path class="st4" d="M1262.3,1139h13.1v27.5l19.4-27.5h12.5v46.9h-13.1v-27.5l-19.3,27.5h-12.5V1139z"/>
		<path class="st4" d="M1323.4,1139h13.1v27.5l19.4-27.5h12.5v46.9h-13.1v-27.5l-19.3,27.5h-12.5V1139z M1335.3,1133.5
			c-2.2-1.8-3.3-4.6-3.3-8.2h8.9c0,1.6,0.4,2.7,1.2,3.5c0.8,0.8,2,1.1,3.6,1.1c1.7,0,2.9-0.4,3.7-1.1c0.8-0.8,1.2-1.9,1.3-3.5h8.9
			c0,3.6-1.1,6.3-3.4,8.2c-2.2,1.8-5.7,2.7-10.5,2.7C1341,1136.2,1337.5,1135.3,1335.3,1133.5z"/>
		<path class="st4" d="M1454,1139v46.9h-13.1v-36.4H1423v36.4H1410V1139H1454z"/>
		<path class="st4" d="M1479.8,1183.7c-4-2.1-7.1-5-9.3-8.7c-2.3-3.7-3.4-7.9-3.4-12.5c0-4.6,1.1-8.8,3.4-12.5
			c2.3-3.7,5.4-6.6,9.3-8.7c4-2.1,8.4-3.1,13.4-3.1c5,0,9.4,1,13.4,3.1c4,2.1,7.1,5,9.3,8.7c2.3,3.7,3.4,7.9,3.4,12.5
			c0,4.6-1.1,8.8-3.4,12.5c-2.3,3.7-5.4,6.6-9.3,8.7c-4,2.1-8.4,3.1-13.4,3.1C1488.2,1186.9,1483.8,1185.8,1479.8,1183.7z
			 M1499.6,1174.2c1.9-1.1,3.4-2.7,4.6-4.7c1.1-2,1.7-4.4,1.7-7c0-2.6-0.6-5-1.7-7c-1.1-2-2.6-3.6-4.6-4.7c-1.9-1.1-4.1-1.7-6.4-1.7
			c-2.4,0-4.5,0.6-6.4,1.7c-1.9,1.1-3.4,2.7-4.6,4.7c-1.1,2-1.7,4.4-1.7,7c0,2.6,0.6,5,1.7,7c1.1,2,2.6,3.6,4.6,4.7
			c1.9,1.1,4.1,1.7,6.4,1.7C1495.6,1175.9,1497.7,1175.3,1499.6,1174.2z"/>
		<path class="st4" d="M1532.5,1139h13.1v27.5l19.4-27.5h12.5v46.9h-13.1v-27.5l-19.3,27.5h-12.5V1139z"/>
		<path class="st4" d="M1603.1,1183.8c-3.9-2.1-7-5-9.2-8.7c-2.2-3.7-3.3-7.9-3.3-12.6c0-4.7,1.1-8.9,3.3-12.6
			c2.2-3.7,5.3-6.6,9.2-8.7s8.3-3.1,13.2-3.1c4.3,0,8.2,0.8,11.6,2.3s6.3,3.7,8.6,6.6l-8.4,7.6c-3-3.7-6.7-5.5-11.1-5.5
			c-2.5,0-4.8,0.6-6.8,1.7c-2,1.1-3.5,2.7-4.6,4.7c-1.1,2-1.6,4.4-1.6,7c0,2.6,0.5,5,1.6,7c1.1,2,2.6,3.6,4.6,4.7
			c2,1.1,4.3,1.7,6.8,1.7c4.3,0,8-1.8,11.1-5.5l8.4,7.6c-2.3,2.9-5.1,5-8.6,6.6c-3.4,1.5-7.3,2.3-11.6,2.3
			C1611.4,1186.9,1607,1185.8,1603.1,1183.8z"/>
		<path class="st4" d="M1667.5,1168h-6v18h-13.2V1139h13.2v18.2h6.4l11.2-18.2h13.9l-14.7,22.6l14.8,24.3h-14.9L1667.5,1168z"/>
		<path class="st4" d="M1775.1,1139v46.9h-13.3v-18.3h-18.1v18.3h-13.3V1139h13.3v17.6h18.1V1139H1775.1z"/>
		<path class="st4" d="M1835.8,1139l-19.4,36.2c-2.1,3.9-4.6,6.8-7.5,8.8c-3,2-6.2,3-9.7,3c-2.6,0-5.4-0.6-8.3-1.7l3.1-9.8
			c1.8,0.5,3.4,0.8,4.7,0.8s2.4-0.3,3.5-0.9c1-0.6,1.9-1.5,2.8-2.7l-18.2-33.8h14l10.9,22.6l11.3-22.6H1835.8z"/>
		<path class="st4" d="M1889.5,1168h-5.6v18h-13v-18h-5.6l-9.2,18h-15.3l13.3-24.6l-12.5-22.3h13.9l9.4,18.2h6V1139h13v18.2h5.7
			l9.6-18.2h13.9l-12.5,22.3l13.3,24.6h-15.3L1889.5,1168z"/>
		<path class="st4" d="M1968.9,1139v46.9h-13.3v-18.3h-18.1v18.3h-13.3V1139h13.3v17.6h18.1V1139H1968.9z"/>
		<path class="st4" d="M1994.7,1183.7c-4-2.1-7.1-5-9.3-8.7c-2.3-3.7-3.4-7.9-3.4-12.5c0-4.6,1.1-8.8,3.4-12.5
			c2.3-3.7,5.4-6.6,9.3-8.7c4-2.1,8.4-3.1,13.4-3.1s9.4,1,13.4,3.1c4,2.1,7.1,5,9.3,8.7c2.3,3.7,3.4,7.9,3.4,12.5
			c0,4.6-1.1,8.8-3.4,12.5c-2.3,3.7-5.4,6.6-9.3,8.7c-4,2.1-8.4,3.1-13.4,3.1S1998.7,1185.8,1994.7,1183.7z M2014.5,1174.2
			c1.9-1.1,3.4-2.7,4.6-4.7c1.1-2,1.7-4.4,1.7-7c0-2.6-0.6-5-1.7-7s-2.6-3.6-4.6-4.7c-1.9-1.1-4.1-1.7-6.4-1.7
			c-2.4,0-4.5,0.6-6.4,1.7c-1.9,1.1-3.4,2.7-4.6,4.7c-1.1,2-1.7,4.4-1.7,7c0,2.6,0.6,5,1.7,7c1.1,2,2.6,3.6,4.6,4.7
			c1.9,1.1,4.1,1.7,6.4,1.7C2010.5,1175.9,2012.6,1175.3,2014.5,1174.2z"/>
		<path class="st4" d="M2081.7,1149.6h-21.2v36.4h-13.1V1139h34.4L2081.7,1149.6z"/>
		<path class="st4" d="M2099.4,1183.7c-4-2.1-7.1-5-9.3-8.7c-2.3-3.7-3.4-7.9-3.4-12.5c0-4.6,1.1-8.8,3.4-12.5
			c2.3-3.7,5.4-6.6,9.3-8.7c4-2.1,8.4-3.1,13.4-3.1s9.4,1,13.4,3.1c4,2.1,7.1,5,9.3,8.7c2.3,3.7,3.4,7.9,3.4,12.5
			c0,4.6-1.1,8.8-3.4,12.5c-2.3,3.7-5.4,6.6-9.3,8.7c-4,2.1-8.4,3.1-13.4,3.1S2103.3,1185.8,2099.4,1183.7z M2119.2,1174.2
			c1.9-1.1,3.4-2.7,4.6-4.7c1.1-2,1.7-4.4,1.7-7c0-2.6-0.6-5-1.7-7s-2.6-3.6-4.6-4.7c-1.9-1.1-4.1-1.7-6.4-1.7
			c-2.4,0-4.5,0.6-6.4,1.7c-1.9,1.1-3.4,2.7-4.6,4.7c-1.1,2-1.7,4.4-1.7,7c0,2.6,0.6,5,1.7,7c1.1,2,2.6,3.6,4.6,4.7
			c1.9,1.1,4.1,1.7,6.4,1.7C2115.1,1175.9,2117.3,1175.3,2119.2,1174.2z"/>
		<path class="st4" d="M2187.3,1183.7c-4-2.1-7.1-5-9.3-8.7c-2.3-3.7-3.4-7.9-3.4-12.5c0-4.6,1.1-8.8,3.4-12.5
			c2.3-3.7,5.4-6.6,9.3-8.7c4-2.1,8.4-3.1,13.4-3.1s9.4,1,13.4,3.1c4,2.1,7.1,5,9.3,8.7c2.3,3.7,3.4,7.9,3.4,12.5
			c0,4.6-1.1,8.8-3.4,12.5c-2.3,3.7-5.4,6.6-9.3,8.7c-4,2.1-8.4,3.1-13.4,3.1S2191.2,1185.8,2187.3,1183.7z M2207.1,1174.2
			c1.9-1.1,3.4-2.7,4.6-4.7c1.1-2,1.7-4.4,1.7-7c0-2.6-0.6-5-1.7-7s-2.6-3.6-4.6-4.7c-1.9-1.1-4.1-1.7-6.4-1.7
			c-2.4,0-4.5,0.6-6.4,1.7c-1.9,1.1-3.4,2.7-4.6,4.7c-1.1,2-1.7,4.4-1.7,7c0,2.6,0.6,5,1.7,7c1.1,2,2.6,3.6,4.6,4.7
			c1.9,1.1,4.1,1.7,6.4,1.7C2203,1175.9,2205.2,1175.3,2207.1,1174.2z"/>
		<path class="st4" d="M2239.9,1139h39.2v10.3H2253v7.6h12.1c5.7,0,10,1.2,13.1,3.6c3,2.4,4.6,5.9,4.6,10.4c0,4.7-1.7,8.4-5.1,11.1
			c-3.4,2.7-8.2,4-14.3,4h-23.4V1139z M2262.5,1176.4c2.2,0,3.9-0.4,5.1-1.3c1.2-0.9,1.7-2.2,1.7-3.8c0-3.3-2.3-5-6.8-5h-9.5v10.1
			H2262.5z"/>
		<path class="st4" d="M2338.3,1139l-19.4,36.2c-2.1,3.9-4.6,6.8-7.5,8.8c-3,2-6.2,3-9.7,3c-2.6,0-5.4-0.6-8.3-1.7l3.1-9.8
			c1.8,0.5,3.4,0.8,4.7,0.8s2.4-0.3,3.5-0.9c1-0.6,1.9-1.5,2.8-2.7l-18.2-33.8h14l10.9,22.6l11.3-22.6H2338.3z"/>
		<path class="st4" d="M2390.3,1139v46.9h-13.1V1170c-3.6,1.2-6.9,1.8-10,1.8c-6.6,0-11.6-1.6-15-4.7c-3.5-3.1-5.2-7.7-5.2-13.6
			V1139h13.1v12.9c0,6,2.9,9,8.8,9c3.2,0,6-0.5,8.3-1.6V1139H2390.3z"/>
		<path class="st4" d="M2444.1,1175.7v10.3h-37.7V1139h36.8v10.3h-23.7v7.9h20.8v9.9h-20.8v8.6H2444.1z"/>
		<path class="st4" d="M2502.4,1139v46.9h-13.3v-18.3h-18.1v18.3h-13.3V1139h13.3v17.6h18.1V1139H2502.4z"/>
		<path class="st4" d="M2518.6,1139h13.1v27.5l19.4-27.5h12.5v46.9h-13.1v-27.5l-19.3,27.5h-12.5V1139z"/>
		<path class="st4" d="M2618.9,1139v46.9h-13.1v-11.8h-7.2l-7.7,11.8h-13.9l9.5-13.7c-3.1-1.4-5.5-3.4-7.2-6
			c-1.7-2.6-2.5-5.7-2.5-9.3c0-3.7,0.8-6.8,2.5-9.5c1.7-2.7,4.1-4.7,7.3-6.2c3.2-1.4,6.9-2.1,11.1-2.1H2618.9z M2590.2,1156.7
			c0,2.4,0.7,4.2,2,5.4c1.3,1.2,3.2,1.8,5.7,1.8h7.9v-14.4h-7.8C2592.8,1149.5,2590.2,1151.9,2590.2,1156.7z"/>
	</g>
	<rect x="1032.2" y="834.7" class="st5" width="1999.7" height="460.6"/>
	<text id="_x32__MM_1_" transform="matrix(1 0 0 1 1032.1699 1083.3789)" class="st6 st1 st7">SkillGrad</text>
	<g>
		<path class="st8" d="M1082.8,1081c-17.9-4.7-32.4-10.9-43.6-18.8l21.8-48.9c10.5,6.9,22.7,12.5,36.5,16.8
			c13.9,4.2,27.5,6.4,40.9,6.4c25.5,0,38.2-6.4,38.2-19.1c0-6.7-3.6-11.7-10.9-14.9c-7.3-3.2-18.9-6.6-35-10.2
			c-17.7-3.8-32.4-7.9-44.2-12.2c-11.8-4.4-22-11.3-30.5-20.9c-8.5-9.6-12.7-22.6-12.7-38.9c0-14.3,3.9-27.2,11.7-38.7
			c7.8-11.5,19.5-20.6,35-27.3c15.5-6.7,34.6-10.1,57.1-10.1c15.4,0,30.6,1.7,45.6,5.2c15,3.5,28.2,8.5,39.5,15.2l-20.4,49.3
			c-22.3-12.1-44-18.1-65-18.1c-13.2,0-22.8,2-28.8,5.9c-6,3.9-9,9-9,15.2c0,6.3,3.6,10.9,10.7,14.1c7.1,3.1,18.7,6.4,34.5,9.7
			c17.9,3.8,32.7,7.9,44.4,12.2c11.7,4.4,21.9,11.3,30.5,20.8c8.6,9.5,12.9,22.4,12.9,38.7c0,14.1-3.9,26.8-11.7,38.2
			c-7.8,11.4-19.6,20.5-35.2,27.3c-15.6,6.8-34.6,10.2-57,10.2C1119.1,1088.1,1100.7,1085.7,1082.8,1081z"/>
		<path class="st8" d="M1351.2,1019.7l-18.8,19.1v44.6h-63.7V834.7h63.7v130.4l65-63.3h75.4l-75.4,77.8l81.8,103.9h-77.1
			L1351.2,1019.7z"/>
		<path class="st8" d="M1501,871.9c-7.2-6.5-10.7-14.5-10.7-24.1c0-9.6,3.6-17.6,10.7-24.1c7.1-6.5,16.5-9.7,28.2-9.7
			c11.6,0,21,3.1,28.2,9.2c7.1,6.1,10.7,14,10.7,23.6c0,10.1-3.6,18.4-10.7,25c-7.2,6.6-16.5,9.9-28.2,9.9
			C1517.6,881.6,1508.2,878.4,1501,871.9z M1497.3,901.7h63.7v181.7h-63.7V901.7z"/>
		<path class="st8" d="M1601.6,834.7h63.7v248.7h-63.7V834.7z"/>
		<path class="st8" d="M1705.8,834.7h63.7v248.7h-63.7V834.7z"/>
		<path class="st8" d="M1970.2,961h58.7v97.2c-13.4,9.6-28.8,17-46.3,22.1c-17.4,5.1-34.9,7.7-52.3,7.7c-24.6,0-46.7-5.2-66.4-15.6
			c-19.7-10.4-35.1-24.9-46.3-43.4c-11.2-18.5-16.8-39.5-16.8-63s5.6-44.5,16.8-63c11.2-18.5,26.7-33,46.6-43.4
			c19.9-10.4,42.3-15.6,67.4-15.6c21.9,0,41.6,3.7,59,11.1c17.4,7.4,31.9,18,43.6,31.8l-42.2,38.2c-15.9-17.4-34.9-26.1-57-26.1
			c-20.1,0-36.3,6.1-48.6,18.3c-12.3,12.2-18.4,28.4-18.4,48.8c0,13,2.8,24.5,8.4,34.7c5.6,10.2,13.4,18.1,23.5,23.8
			c10.1,5.7,21.6,8.5,34.5,8.5c12.7,0,24.7-2.6,35.9-7.7V961z"/>
		<path class="st8" d="M2153.4,904.9c10.4-4.1,22.3-6.2,35.7-6.2V956c-5.8-0.7-10.6-1-14.4-1c-13.6,0-24.3,3.7-32,11.1
			c-7.7,7.4-11.6,18.7-11.6,33.9v83.5h-63.7V901.7h60.7v21.8C2134.6,915.2,2143,909,2153.4,904.9z"/>
		<path class="st8" d="M2359.7,919.3c15.9,13.7,23.8,34.8,23.8,63.2v100.9h-59.3v-23.5c-9.2,17.7-27,26.5-53.6,26.5
			c-14.1,0-26.3-2.5-36.5-7.4c-10.3-4.9-18-11.6-23.3-19.9c-5.3-8.4-7.9-17.9-7.9-28.7c0-17.2,6.6-30.6,19.8-40.1
			c13.2-9.5,33.5-14.2,61-14.2h36.2c-1.1-19.2-14-28.8-38.5-28.8c-8.7,0-17.5,1.4-26.5,4.2c-8.9,2.8-16.5,6.7-22.8,11.6l-21.5-43.2
			c10.1-6.7,22.3-11.9,36.7-15.6s28.9-5.5,43.4-5.5C2320.8,898.7,2343.8,905.6,2359.7,919.3z M2307.7,1040.8
			c5.6-3.6,9.6-8.8,12.1-15.8v-15.8h-27.5c-18.5,0-27.8,6.1-27.8,18.4c0,5.6,2.1,10.1,6.4,13.4c4.2,3.4,10.1,5,17.4,5
			S2302.1,1044.4,2307.7,1040.8z"/>
		<path class="st8" d="M2618.7,834.7v248.7h-60.7v-18.1c-11.8,14.1-29.6,21.1-53.3,21.1c-16.5,0-31.6-3.9-45.2-11.6
			c-13.6-7.7-24.4-18.7-32.3-33c-7.9-14.3-11.9-30.8-11.9-49.6s4-35.2,11.9-49.4c7.9-14.2,18.7-25.1,32.3-32.7
			c13.6-7.6,28.7-11.4,45.2-11.4c21.7,0,38.4,6.3,50.3,18.8v-82.8H2618.7z M2545.3,1024.2c7.1-7.7,10.7-18.4,10.7-32
			c0-13.4-3.5-23.9-10.6-31.5c-7-7.6-16.1-11.4-27.3-11.4c-11.2,0-20.3,3.8-27.5,11.4c-7.2,7.6-10.7,18.1-10.7,31.5
			c0,13.6,3.6,24.3,10.7,32c7.1,7.7,16.3,11.6,27.5,11.6C2529.1,1035.8,2538.2,1031.9,2545.3,1024.2z"/>
	</g>
</g>
<g id="ЗНАК">
	<g id="Тех">
		<g id="Сегменты">
			<linearGradient id="SVGID_1_" gradientUnits="userSpaceOnUse" x1="432.1674" y1="1473.7894" x2="1075.2733" y2="830.6835">
				<stop  offset="5.494467e-02" style="stop-color:#FD6614"/>
				<stop  offset="1" style="stop-color:#F82627"/>
			</linearGradient>
			<path class="st9" d="M832.7,1087.8l-27.4-11.4c-3.9,6.8-8.2,13.3-12.9,19.5l21,21C820.6,1107.8,827.1,1098.1,832.7,1087.8z"/>
			<linearGradient id="SVGID_2_" gradientUnits="userSpaceOnUse" x1="269.0802" y1="1324.8376" x2="936.0361" y2="657.8818">
				<stop  offset="5.494467e-02" style="stop-color:#FD6614"/>
				<stop  offset="1" style="stop-color:#F82627"/>
			</linearGradient>
			<path class="st10" d="M505.6,1076.4l-27.4,11.4c6.5,11.8,14.1,22.9,22.7,33.1l20.9-20.9C515.7,1092.6,510.3,1084.7,505.6,1076.4z
				"/>
			<linearGradient id="SVGID_3_" gradientUnits="userSpaceOnUse" x1="369.5624" y1="1426.7666" x2="1027.3369" y2="768.9921">
				<stop  offset="5.494467e-02" style="stop-color:#FD6614"/>
				<stop  offset="1" style="stop-color:#F82627"/>
			</linearGradient>
			<path class="st11" d="M847.9,933.6L820.6,945c2.5,8.5,4.4,17.3,5.5,26.3h29.7C854.3,958.4,851.7,945.8,847.9,933.6z"/>
			<linearGradient id="SVGID_4_" gradientUnits="userSpaceOnUse" x1="283.3683" y1="1314.2272" x2="926.2843" y2="671.3112">
				<stop  offset="5.494467e-02" style="stop-color:#FD6614"/>
				<stop  offset="1" style="stop-color:#F82627"/>
			</linearGradient>
			<path class="st12" d="M743.4,846.3c6.6,3.9,12.9,8.2,18.8,12.9l20.9-21c-8.8-7.2-18.3-13.7-28.3-19.3L743.4,846.3z"/>
			<linearGradient id="SVGID_5_" gradientUnits="userSpaceOnUse" x1="232.3022" y1="1271.6836" x2="882.4267" y2="621.559">
				<stop  offset="5.494467e-02" style="stop-color:#FD6614"/>
				<stop  offset="1" style="stop-color:#F82627"/>
			</linearGradient>
			<path class="st13" d="M680.4,824.1c8,1.2,15.9,2.9,23.5,5.1l11.4-27.3c-11.3-3.5-22.9-6-34.9-7.5V824.1z"/>
			<linearGradient id="SVGID_6_" gradientUnits="userSpaceOnUse" x1="179.377" y1="1210.0818" x2="822.333" y2="567.1258">
				<stop  offset="5.494467e-02" style="stop-color:#FD6614"/>
				<stop  offset="1" style="stop-color:#F82627"/>
			</linearGradient>
			<path class="st14" d="M480.2,894.3l27.4,11.4c4.2-6.9,8.9-13.6,14-19.8L500.7,865C493,874.1,486.1,883.9,480.2,894.3z"/>
			<linearGradient id="SVGID_7_" gradientUnits="userSpaceOnUse" x1="320.4447" y1="1383.1162" x2="983.3222" y2="720.2387">
				<stop  offset="5.494467e-02" style="stop-color:#FD6614"/>
				<stop  offset="1" style="stop-color:#F82627"/>
			</linearGradient>
			<path class="st15" d="M803.2,905.7l27.4-11.4c-5.1-8.9-10.9-17.4-17.3-25.4l-20.9,21C796.3,894.9,799.9,900.2,803.2,905.7z"/>
			<linearGradient id="SVGID_8_" gradientUnits="userSpaceOnUse" x1="407.3054" y1="1463.1791" x2="1064.0736" y2="806.4109">
				<stop  offset="5.494467e-02" style="stop-color:#FD6614"/>
				<stop  offset="1" style="stop-color:#F82627"/>
			</linearGradient>
			<path class="st16" d="M703.9,1156.4c-7.6,2.2-15.5,4-23.5,5.1v29.7c12-1.5,23.7-4,34.9-7.5L703.9,1156.4z"/>
			<linearGradient id="SVGID_9_" gradientUnits="userSpaceOnUse" x1="192.7106" y1="1238.5472" x2="848.8859" y2="582.3719">
				<stop  offset="5.494467e-02" style="stop-color:#FD6614"/>
				<stop  offset="1" style="stop-color:#F82627"/>
			</linearGradient>
			<path class="st17" d="M613.2,827.5c7.9-2,16-3.4,24.2-4.3v-29.5c-12.2,1.1-24.2,3.2-35.7,6.4L613.2,827.5z"/>
			<linearGradient id="SVGID_10_" gradientUnits="userSpaceOnUse" x1="427.4568" y1="1479.1094" x2="1078.1738" y2="828.3923">
				<stop  offset="5.494467e-02" style="stop-color:#FD6614"/>
				<stop  offset="1" style="stop-color:#F82627"/>
			</linearGradient>
			<path class="st18" d="M743.4,1139.3l11.4,27.4c10-5.7,19.5-12.1,28.3-19.3l-20.9-21C756.2,1131.1,749.9,1135.4,743.4,1139.3z"/>
			<linearGradient id="SVGID_11_" gradientUnits="userSpaceOnUse" x1="375.8819" y1="1424.4556" x2="1025.9072" y2="774.4302">
				<stop  offset="5.494467e-02" style="stop-color:#FD6614"/>
				<stop  offset="1" style="stop-color:#F82627"/>
			</linearGradient>
			<path class="st19" d="M637.4,1162.4c-8.3-0.9-16.3-2.3-24.2-4.3l-11.4,27.4c11.5,3.2,23.4,5.3,35.7,6.4V1162.4z"/>
			<linearGradient id="SVGID_12_" gradientUnits="userSpaceOnUse" x1="410.0576" y1="1458.7168" x2="1060.3293" y2="808.4451">
				<stop  offset="5.494467e-02" style="stop-color:#FD6614"/>
				<stop  offset="1" style="stop-color:#F82627"/>
			</linearGradient>
			<path class="st20" d="M821.7,1036.7l27.4,11.4c3.2-10.9,5.4-22.2,6.7-33.8h-29.7C825.1,1021.9,823.6,1029.4,821.7,1036.7z"/>
			<linearGradient id="SVGID_13_" gradientUnits="userSpaceOnUse" x1="177.457" y1="1214.0793" x2="827.4131" y2="564.1232">
				<stop  offset="5.494467e-02" style="stop-color:#FD6614"/>
				<stop  offset="1" style="stop-color:#F82627"/>
			</linearGradient>
			<path class="st21" d="M573.1,843.1l-11.4-27.3c-10.6,5.6-20.7,12-30.1,19.3l21,21C559.1,851.3,566,847,573.1,843.1z"/>
			<linearGradient id="SVGID_14_" gradientUnits="userSpaceOnUse" x1="332.7988" y1="1374.2443" x2="975.6163" y2="731.4268">
				<stop  offset="5.494467e-02" style="stop-color:#FD6614"/>
				<stop  offset="1" style="stop-color:#F82627"/>
			</linearGradient>
			<path class="st22" d="M573.1,1142.5c-7-3.8-13.8-8.1-20.2-12.9l-21,21c9.3,7.2,19.3,13.6,29.8,19.1L573.1,1142.5z"/>
			<linearGradient id="SVGID_15_" gradientUnits="userSpaceOnUse" x1="193.1106" y1="1233.2465" x2="844.1661" y2="582.191">
				<stop  offset="5.494467e-02" style="stop-color:#FD6614"/>
				<stop  offset="1" style="stop-color:#F82627"/>
			</linearGradient>
			<path class="st23" d="M490.3,945L463,933.6c-3.8,12.1-6.4,24.7-7.8,37.7h29.6C485.9,962.3,487.8,953.5,490.3,945z"/>
			<linearGradient id="SVGID_16_" gradientUnits="userSpaceOnUse" x1="225.5966" y1="1272.0464" x2="882.3129" y2="615.3302">
				<stop  offset="5.494467e-02" style="stop-color:#FD6614"/>
				<stop  offset="1" style="stop-color:#F82627"/>
			</linearGradient>
			<path class="st24" d="M489.2,1036.7c-2-7.3-3.4-14.7-4.4-22.4h-29.6c1.3,11.6,3.5,22.9,6.7,33.8L489.2,1036.7z"/>
		</g>
		<g id="Лучи">
			<linearGradient id="SVGID_17_" gradientUnits="userSpaceOnUse" x1="362.7765" y1="1409.4792" x2="1013.7621" y2="758.4937">
				<stop  offset="5.494467e-02" style="stop-color:#FD6614"/>
				<stop  offset="1" style="stop-color:#F82627"/>
			</linearGradient>
			<path class="st25" d="M876.3,864.5c-7.7,3.2-13.8,9.3-16.9,17c-1.2,2.9-2,6-2.2,9l-50.4,21c4.7,8.6,8.6,17.6,11.8,26.9l49.9-20.8
				c5.5,4.5,12.5,7.1,19.9,7.1c4.1,0,8.2-0.8,12.1-2.4c7.7-3.2,13.7-9.3,16.9-17c3.2-7.8,3.2-16.3-0.1-24
				c-4.9-11.7-16.3-19.3-29-19.3C884.2,862.1,880.1,862.9,876.3,864.5z M900.6,888.4c1.4,3.3,1.4,6.9,0,10.2
				c-1.3,3.3-3.9,5.8-7.2,7.2c-1.6,0.7-3.4,1-5.1,1c-5.4,0-10.2-3.2-12.3-8.2c-1.4-3.3-1.4-6.9,0-10.2c1.3-3.3,3.9-5.8,7.2-7.2
				c1.6-0.7,3.4-1,5.1-1C893.7,880.2,898.5,883.4,900.6,888.4z"/>
			<linearGradient id="SVGID_18_" gradientUnits="userSpaceOnUse" x1="148.3163" y1="1208.2977" x2="816.9317" y2="539.6824">
				<stop  offset="5.494467e-02" style="stop-color:#FD6614"/>
				<stop  offset="1" style="stop-color:#F82627"/>
			</linearGradient>
			<path class="st26" d="M558.8,791.2l20.4,48.8c8.7-4.3,17.9-7.9,27.4-10.7l-20.7-49.5c7.1-8.7,9.3-20.9,4.7-32
				c-4.9-11.7-16.3-19.3-29-19.3c-4.2,0-8.2,0.8-12.1,2.4c-16,6.7-23.5,25.1-16.9,41C537.3,782.8,547.3,790.1,558.8,791.2z
				 M556.6,747.7c1.6-0.7,3.4-1,5.1-1c5.4,0,10.2,3.2,12.3,8.2c2.8,6.8-0.4,14.5-7.1,17.4c-1.6,0.7-3.4,1-5.1,1
				c-5.4,0-10.2-3.2-12.3-8.2C546.6,758.3,549.8,750.5,556.6,747.7z"/>
			<linearGradient id="SVGID_19_" gradientUnits="userSpaceOnUse" x1="302.8995" y1="1348.8314" x2="955.4353" y2="696.2956">
				<stop  offset="5.494467e-02" style="stop-color:#FD6614"/>
				<stop  offset="1" style="stop-color:#F82627"/>
			</linearGradient>
			<path class="st27" d="M767.5,863.6c7.5,6.4,14.4,13.3,20.7,20.9l72-72.1c2.9,0.9,6,1.4,9.2,1.4c8.4,0,16.3-3.3,22.2-9.2
				c12.2-12.2,12.2-32.1,0-44.4c-5.9-5.9-13.8-9.2-22.2-9.2c-8.4,0-16.3,3.3-22.2,9.2c-5.9,5.9-9.2,13.8-9.2,22.2
				c0,3.2,0.5,6.3,1.4,9.2L767.5,863.6z M860,773c2.5-2.5,5.8-3.9,9.4-3.9c3.5,0,6.9,1.4,9.4,3.9c5.2,5.2,5.2,13.6,0,18.8
				c-2.5,2.5-5.8,3.9-9.4,3.9c-3.5,0-6.9-1.4-9.4-3.9c-2.5-2.5-3.9-5.8-3.9-9.4C856.1,778.8,857.5,775.5,860,773z"/>
			<linearGradient id="SVGID_20_" gradientUnits="userSpaceOnUse" x1="169.2521" y1="1226.1635" x2="833.2" y2="562.2155">
				<stop  offset="5.494467e-02" style="stop-color:#FD6614"/>
				<stop  offset="1" style="stop-color:#F82627"/>
			</linearGradient>
			<path class="st28" d="M644.2,707.1v115.6c3.7-0.2,7.4-0.4,11.2-0.4c6.1,0,12.2,0.3,18.2,1V707.1c9.9-5.3,16.7-15.7,16.7-27.7
				c0-17.3-14.1-31.4-31.4-31.4c-17.3,0-31.4,14.1-31.4,31.4C627.5,691.4,634.3,701.8,644.2,707.1z M658.9,666.1
				c7.3,0,13.3,6,13.3,13.3c0,7.3-6,13.3-13.3,13.3c-7.3,0-13.3-5.9-13.3-13.3C645.6,672.1,651.6,666.1,658.9,666.1z"/>
			<linearGradient id="SVGID_21_" gradientUnits="userSpaceOnUse" x1="238.7383" y1="1287.2871" x2="894.7912" y2="631.2342">
				<stop  offset="5.494467e-02" style="stop-color:#FD6614"/>
				<stop  offset="1" style="stop-color:#F82627"/>
			</linearGradient>
			<path class="st29" d="M710.4,831.3c9.4,3.1,18.4,7,27,11.7l21.6-51.8c11.5-1.1,21.5-8.3,26.1-19.1c6.7-16-0.9-34.4-16.9-41
				c-3.9-1.6-7.9-2.4-12.1-2.4c-12.7,0-24.1,7.6-29,19.3c-4.6,11.1-2.4,23.3,4.7,32L710.4,831.3z M743.9,754.8
				c2.1-5,6.9-8.2,12.3-8.2c1.7,0,3.5,0.3,5.1,1c6.7,2.8,10,10.6,7.1,17.4c-2.1,5-6.9,8.2-12.2,8.2c-1.8,0-3.5-0.3-5.1-1
				C744.3,769.4,741.1,761.6,743.9,754.8z"/>
			<linearGradient id="SVGID_22_" gradientUnits="userSpaceOnUse" x1="438.3834" y1="1507.0974" x2="1107.3707" y2="838.1102">
				<stop  offset="5.494467e-02" style="stop-color:#FD6614"/>
				<stop  offset="1" style="stop-color:#F82627"/>
			</linearGradient>
			<path class="st30" d="M759,1194.5l-21.6-51.8c-8.6,4.6-17.6,8.5-27,11.7l21.5,51.5c-7.1,8.7-9.3,20.9-4.7,32
				c4.9,11.7,16.3,19.3,29,19.3c4.2,0,8.2-0.8,12.1-2.4c16-6.7,23.5-25.1,16.9-41C780.6,1202.8,770.5,1195.5,759,1194.5z
				 M761.2,1237.9c-1.6,0.7-3.4,1-5.1,1c-5.4,0-10.2-3.2-12.3-8.2c-2.8-6.7,0.4-14.5,7.1-17.4c1.6-0.7,3.3-1,5.1-1
				c5.4,0,10.2,3.2,12.2,8.2C771.2,1227.3,768,1235.1,761.2,1237.9z"/>
			<linearGradient id="SVGID_23_" gradientUnits="userSpaceOnUse" x1="472.6467" y1="1530.5228" x2="1125.9271" y2="877.2423">
				<stop  offset="5.494467e-02" style="stop-color:#FD6614"/>
				<stop  offset="1" style="stop-color:#F82627"/>
			</linearGradient>
			<path class="st31" d="M869.3,1171.9c-3.2,0-6.3,0.5-9.2,1.4l-72-72c-6.3,7.5-13.2,14.5-20.7,20.9l71.9,71.9
				c-0.9,2.9-1.4,6-1.4,9.2c0,8.4,3.3,16.3,9.2,22.2c5.9,5.9,13.8,9.2,22.2,9.2l0,0c8.4,0,16.3-3.3,22.2-9.2
				c12.2-12.2,12.2-32.1,0-44.4C885.6,1175.2,877.7,1171.9,869.3,1171.9z M878.7,1212.6c-2.5,2.5-5.8,3.9-9.4,3.9
				c-3.5,0-6.9-1.4-9.4-3.9c-5.2-5.2-5.2-13.6,0-18.8c2.5-2.5,5.8-3.9,9.4-3.9c3.5,0,6.9,1.4,9.4,3.9
				C883.9,1199.1,883.9,1207.5,878.7,1212.6z"/>
			<linearGradient id="SVGID_24_" gradientUnits="userSpaceOnUse" x1="362.9566" y1="1415.3348" x2="1018.9631" y2="759.3283">
				<stop  offset="5.494467e-02" style="stop-color:#FD6614"/>
				<stop  offset="1" style="stop-color:#F82627"/>
			</linearGradient>
			<path class="st32" d="M606.6,1156.3c-9.5-2.8-18.7-6.4-27.4-10.7l-20.4,48.8c-11.5,1.1-21.5,8.3-26,19.1
				c-6.7,16,0.9,34.4,16.9,41c3.9,1.6,7.9,2.4,12.1,2.4l0,0c12.7,0,24.1-7.6,29-19.3c4.6-11.1,2.4-23.3-4.7-32L606.6,1156.3z
				 M573.9,1230.8c-2.1,5-6.9,8.2-12.3,8.2l0,0c-1.8,0-3.5-0.3-5.1-1c-6.7-2.8-9.9-10.6-7.1-17.3c2.1-5,6.9-8.2,12.3-8.2
				c1.8,0,3.5,0.3,5.1,1C573.6,1216.3,576.8,1224.1,573.9,1230.8z"/>
			<linearGradient id="SVGID_25_" gradientUnits="userSpaceOnUse" x1="423.521" y1="1484.8097" x2="1087.486" y2="820.8446">
				<stop  offset="5.494467e-02" style="stop-color:#FD6614"/>
				<stop  offset="1" style="stop-color:#F82627"/>
			</linearGradient>
			<path class="st33" d="M673.6,1278.6v-116.2c-6,0.6-12,1-18.2,1c-3.8,0-7.5-0.2-11.2-0.4v115.6c-9.9,5.3-16.7,15.7-16.7,27.7
				c0,17.3,14.1,31.4,31.4,31.4c17.3,0,31.4-14.1,31.4-31.4C690.3,1294.3,683.5,1283.9,673.6,1278.6z M658.9,1319.5
				c-7.3,0-13.3-6-13.3-13.3c0-7.3,5.9-13.3,13.3-13.3c7.3,0,13.3,5.9,13.3,13.3C672.2,1313.6,666.2,1319.5,658.9,1319.5z"/>
			<linearGradient id="SVGID_26_" gradientUnits="userSpaceOnUse" x1="434.3051" y1="1472.9066" x2="1077.6068" y2="829.6048">
				<stop  offset="5.494467e-02" style="stop-color:#FD6614"/>
				<stop  offset="1" style="stop-color:#F82627"/>
			</linearGradient>
			<path class="st34" d="M972.4,961.5c-12,0-22.4,6.8-27.7,16.7H826.8c0.4,4.9,0.7,9.8,0.7,14.7s-0.3,9.9-0.7,14.7h117.9
				c5.3,9.9,15.7,16.7,27.7,16.7c17.3,0,31.4-14.1,31.4-31.4C1003.7,975.5,989.7,961.5,972.4,961.5z M972.4,1006.1
				c-7.3,0-13.3-5.9-13.3-13.3s6-13.3,13.3-13.3c7.3,0,13.3,6,13.3,13.3S979.7,1006.1,972.4,1006.1z"/>
			<linearGradient id="SVGID_27_" gradientUnits="userSpaceOnUse" x1="452.9907" y1="1488.7778" x2="1092.0199" y2="849.7485">
				<stop  offset="5.494467e-02" style="stop-color:#FD6614"/>
				<stop  offset="1" style="stop-color:#F82627"/>
			</linearGradient>
			<path class="st35" d="M900.4,1058.8c-3.8-1.6-7.9-2.4-12.1-2.4c-7.5,0-14.4,2.6-19.9,7.1l-48.6-20.3c-3,9.4-6.8,18.5-11.2,27.2
				l48.6,20.3c1.1,11.2,8.1,21.4,19.1,26c3.9,1.6,7.9,2.4,12.1,2.4c12.7,0,24.1-7.6,29-19.3C923.9,1083.9,916.4,1065.5,900.4,1058.8
				z M900.6,1092.9c-2.1,5-6.9,8.2-12.3,8.2c-1.7,0-3.5-0.3-5.1-1c-6.8-2.8-10-10.6-7.1-17.4c2.1-5,6.9-8.2,12.3-8.2
				c1.7,0,3.5,0.3,5.1,1C900.2,1078.3,903.4,1086.1,900.6,1092.9z"/>
			<linearGradient id="SVGID_28_" gradientUnits="userSpaceOnUse" x1="238.1909" y1="1281.1365" x2="889.2533" y2="630.0742">
				<stop  offset="5.494467e-02" style="stop-color:#FD6614"/>
				<stop  offset="1" style="stop-color:#F82627"/>
			</linearGradient>
			<path class="st36" d="M434.6,1116.7c11.1-4.6,18.1-14.9,19.1-26l48.6-20.3c-4.5-8.7-8.3-17.7-11.2-27.2l-48.6,20.3
				c-5.5-4.5-12.5-7.1-19.9-7.1c-4.2,0-8.2,0.8-12.1,2.4c-16,6.7-23.5,25.1-16.9,41c4.9,11.7,16.3,19.3,29,19.3
				C426.7,1119.1,430.7,1118.3,434.6,1116.7z M410.3,1092.9c-2.8-6.7,0.4-14.5,7.1-17.4c1.6-0.7,3.4-1,5.1-1
				c5.4,0,10.2,3.2,12.3,8.2c2.8,6.8-0.4,14.5-7.1,17.4c-1.6,0.7-3.4,1-5.1,1C417.1,1101,412.3,1097.8,410.3,1092.9z"/>
			<linearGradient id="SVGID_29_" gradientUnits="userSpaceOnUse" x1="179.0905" y1="1213.67" x2="822.5698" y2="570.1909">
				<stop  offset="5.494467e-02" style="stop-color:#FD6614"/>
				<stop  offset="1" style="stop-color:#F82627"/>
			</linearGradient>
			<path class="st37" d="M483.4,992.8c0-5,0.3-9.9,0.7-14.7H373.2c-5.3-9.9-15.7-16.7-27.7-16.7c-17.3,0-31.4,14.1-31.4,31.4
				c0,17.3,14.1,31.4,31.4,31.4c12,0,22.4-6.8,27.7-16.7H484C483.6,1002.7,483.4,997.8,483.4,992.8z M345.5,1006.1
				c-7.3,0-13.3-5.9-13.3-13.3s6-13.3,13.3-13.3c7.3,0,13.3,6,13.3,13.3S352.8,1006.1,345.5,1006.1z"/>
			<linearGradient id="SVGID_30_" gradientUnits="userSpaceOnUse" x1="302.312" y1="1349.4193" x2="954.2524" y2="697.4789">
				<stop  offset="5.494467e-02" style="stop-color:#FD6614"/>
				<stop  offset="1" style="stop-color:#F82627"/>
			</linearGradient>
			<path class="st38" d="M547.5,1125.5c-7.7-6.2-14.8-12.9-21.3-20.3l-68.1,68.2c-3.1-1-6.3-1.5-9.6-1.5c-8.4,0-16.3,3.3-22.2,9.2
				c-12.2,12.2-12.2,32.1,0,44.4c5.9,5.9,13.8,9.2,22.2,9.2l0,0c8.4,0,16.2-3.3,22.2-9.2c5.9-5.9,9.2-13.8,9.2-22.2
				c0-3-0.4-6-1.3-8.8L547.5,1125.5z M457.9,1212.6c-2.5,2.5-5.8,3.9-9.4,3.9l0,0c-3.5,0-6.9-1.4-9.4-3.9c-5.2-5.2-5.2-13.6,0-18.8
				c2.5-2.5,5.8-3.9,9.4-3.9c3.5,0,6.9,1.4,9.4,3.9c2.5,2.5,3.9,5.8,3.9,9.4C461.7,1206.8,460.4,1210.1,457.9,1212.6z"/>
			<linearGradient id="SVGID_31_" gradientUnits="userSpaceOnUse" x1="161.8153" y1="1189.4458" x2="800.6817" y2="550.5794">
				<stop  offset="5.494467e-02" style="stop-color:#FD6614"/>
				<stop  offset="1" style="stop-color:#F82627"/>
			</linearGradient>
			<path class="st39" d="M410.4,922.4c3.9,1.6,7.9,2.4,12.1,2.4l0,0c7.4,0,14.4-2.6,19.9-7.1l49.9,20.8c3.2-9.4,7.1-18.4,11.8-26.9
				l-50.4-21c-0.3-3.1-1-6.1-2.2-9c-3.2-7.8-9.2-13.8-16.9-17c-3.9-1.6-7.9-2.4-12.1-2.4c-12.7,0-24.1,7.6-29,19.3
				c-3.2,7.7-3.2,16.3-0.1,24C396.7,913.2,402.7,919.2,410.4,922.4z M410.3,888.4c2.1-5,6.9-8.2,12.3-8.2c1.7,0,3.5,0.3,5.1,1
				c3.3,1.4,5.8,3.9,7.2,7.2c1.4,3.3,1.3,6.9,0,10.2c-2.1,5-6.9,8.2-12.3,8.2c-1.7,0-3.5-0.3-5.1-1c-3.3-1.4-5.8-3.9-7.2-7.2
				C408.9,895.3,408.9,891.7,410.3,888.4z"/>
			<linearGradient id="SVGID_32_" gradientUnits="userSpaceOnUse" x1="130.0067" y1="1167.042" x2="783.3072" y2="513.7415">
				<stop  offset="5.494467e-02" style="stop-color:#FD6614"/>
				<stop  offset="1" style="stop-color:#F82627"/>
			</linearGradient>
			<path class="st40" d="M448.5,813.7c3.2,0,6.2-0.5,9.2-1.4l68.3,68.3c6.5-7.3,13.6-14.2,21.3-20.3l-68.8-68.8
				c3.3-10.7,0.7-22.9-7.8-31.4c-5.9-5.9-13.8-9.2-22.2-9.2c-8.4,0-16.3,3.3-22.2,9.2c-5.9,5.9-9.2,13.8-9.2,22.2
				c0,8.4,3.3,16.2,9.2,22.2C432.2,810.5,440.1,813.7,448.5,813.7z M439.1,773c2.5-2.5,5.8-3.9,9.4-3.9c3.5,0,6.9,1.4,9.4,3.9
				c5.2,5.2,5.2,13.6,0,18.8c-2.5,2.5-5.8,3.9-9.4,3.9c-3.5,0-6.9-1.4-9.4-3.9c-2.5-2.5-3.9-5.8-3.9-9.4
				C435.2,778.8,436.6,775.5,439.1,773z"/>
		</g>
	</g>
	<path id="_x32__град" class="st41" d="M496.3,1033.8c2.3-0.8,3.6-1.2,6.6-1.2c6.4,0,12.4,2.4,17.3,7c5.2,4.9,7.9,11.2,7.9,18.1
		c0,4.1-0.9,7.5-2.1,10.3l2.9,0.9c4-2.9,8.7-4.4,13.8-4.4c4.9,0,9.9,1.4,15.3,4.2c0.8-0.6,1.7-1.1,2.7-1.6
		c4.5-13.4,16.7-23.1,31.2-23.1c13.5,0,25.1,8.4,30.2,20.5c12.2-7.9,21.1,0.7,23.3,0.8c6-4,13.1-6.3,20.7-6.3
		c7.2,0,13.9,2.1,19.6,5.6l1.2-0.1c7.1,0,13.6,1.7,19.4,4.9c8.7-22.4,28.7-31.7,50.1-36.2c16.8-3.5,43.5-4.8,57.2,6.9
		c4.5-16.8,6.3-28.4,6.3-32.7c0-3.2,0-29.3,0-29.3h-11.5v-30.9H798l-3.3-13.5l-5.6,15.4l-3.8,1l-2.1,59.7l-11.5,13.9V910.4
		l-34.2,15.4V978l-5.6-0.5v-19.4l-13.2-13.4l-15,11.9v51.2h-3.8v15.9l-10.3-0.5V984l-33.7-14.4v-19.9l-66.6,0.5v29.3h-14.1v12h-15.8
		v-23.4l-13.7-1v-58.7l-11.1-10.9l-15.4,17.9v51.2l-9-1.5v-18.4l-7.7,1.5v23.4h-11.1v32.8C491.5,1004.4,492.4,1018.5,496.3,1033.8z
		 M769.5,931.2l-3.3-0.8l0-3.7l3.3,0.8L769.5,931.2z M769.4,939.3l-3.3-0.8l0-3.7l3.3,0.8L769.4,939.3z M769.3,948.7L766,948l0-3.7
		l3.3,0.8L769.3,948.7z M766,956.1l0-3.7l3.3,0.8l0,3.7L766,956.1z M763.8,929.8l-3.3-0.8l0-3.7l3.3,0.8L763.8,929.8z M763.8,938
		l-3.3-0.8l0-3.7l3.3,0.8L763.8,938z M763.7,947.4l-3.3-0.8l0-3.7l3.3,0.8L763.7,947.4z M760.3,954.7l0-3.7l3.3,0.8l0,3.7
		L760.3,954.7z M741.3,930.4l15.1-6.3l-0.2,100.5l-14.9,2.5V930.4z M705.9,958.7l12-10.6v58.2h-12V958.7z M660.2,979.2h4.9
		l-0.2,73.8l-4.7-0.6V979.2z M641.9,987.8h6.3v6.6h-6.3V987.8z M628,987.8h6.3v6.6H628V987.8z M628,973.4h6.3v6.6H628V973.4z
		 M613.3,987.8h6.3v6.6h-6.3V987.8z M613.3,973.4h6.3v6.6h-6.3V973.4z M599.2,973.4h6.3v6.6h-6.3V973.4z M541.2,1037.7h8.9v9.3h-8.9
		V1037.7z M541.2,1020.8h8.9v9.3h-8.9V1020.8z M541.2,1007.3h8.9v9.3h-8.9V1007.3z M541.2,992h8.9v9.3h-8.9V992z M541.2,976.9h8.9
		v9.3h-8.9V976.9z M533,965.2h-11.6v-48.4l11.6-12.1V965.2z M520.4,1020.8h8.9v9.3h-8.9V1020.8z M520.4,1007.3h8.9v9.3h-8.9V1007.3z
		 M520.4,992h8.9v9.3h-8.9V992z M520.4,976.9h8.9v9.3h-8.9V976.9z M500.5,1020.8h8.9v9.3h-8.9V1020.8z M500.5,1007.3h8.9v9.3h-8.9
		V1007.3z M500.5,992h8.9v9.3h-8.9V992z M500.5,976.9h8.9v9.3h-8.9V976.9z"/>
	<linearGradient id="_x31__град_1_" gradientUnits="userSpaceOnUse" x1="550.4221" y1="1092.4242" x2="752.0377" y2="890.8085">
		<stop  offset="5.494446e-02" style="stop-color:#208ABD"/>
		<stop  offset="1" style="stop-color:#1A5BA6"/>
	</linearGradient>
	<path id="_x31__град" class="st42" d="M496.3,1033.8c2.3-0.8,3.6-1.2,6.6-1.2c6.4,0,12.4,2.4,17.3,7c5.2,4.9,7.9,11.2,7.9,18.1
		c0,4.1-0.9,7.5-2.1,10.3l2.9,0.9c4-2.9,8.7-4.4,13.8-4.4c4.9,0,9.9,1.4,15.3,4.2c0.8-0.6,1.7-1.1,2.7-1.6
		c4.5-13.4,16.7-23.1,31.2-23.1c13.5,0,25.1,8.4,30.2,20.5c12.2-7.9,21.1,0.7,23.3,0.8c6-4,13.1-6.3,20.7-6.3
		c7.2,0,13.9,2.1,19.6,5.6l1.2-0.1c7.1,0,13.6,1.7,19.4,4.9c8.7-22.4,28.7-31.7,50.1-36.2c16.8-3.5,43.5-4.8,57.2,6.9
		c4.5-16.8,6.3-28.4,6.3-32.7c0-3.2,0-29.3,0-29.3h-11.5v-30.9H798l-3.3-13.5l-5.6,15.4l-3.8,1l-2.1,59.7l-11.5,13.9V910.4
		l-34.2,15.4V978l-5.6-0.5v-19.4l-13.2-13.4l-15,11.9v51.2h-3.8v15.9l-10.3-0.5V984l-33.7-14.4v-19.9l-66.6,0.5v29.3h-14.1v12h-15.8
		v-23.4l-13.7-1v-58.7l-11.1-10.9l-15.4,17.9v51.2l-9-1.5v-18.4l-7.7,1.5v23.4h-11.1v32.8C491.5,1004.4,492.4,1018.5,496.3,1033.8z
		 M769.5,931.2l-3.3-0.8l0-3.7l3.3,0.8L769.5,931.2z M769.4,939.3l-3.3-0.8l0-3.7l3.3,0.8L769.4,939.3z M769.3,948.7L766,948l0-3.7
		l3.3,0.8L769.3,948.7z M766,956.1l0-3.7l3.3,0.8l0,3.7L766,956.1z M763.8,929.8l-3.3-0.8l0-3.7l3.3,0.8L763.8,929.8z M763.8,938
		l-3.3-0.8l0-3.7l3.3,0.8L763.8,938z M763.7,947.4l-3.3-0.8l0-3.7l3.3,0.8L763.7,947.4z M760.3,954.7l0-3.7l3.3,0.8l0,3.7
		L760.3,954.7z M741.3,930.4l15.1-6.3l-0.2,100.5l-14.9,2.5V930.4z M705.9,958.7l12-10.6v58.2h-12V958.7z M660.2,979.2h4.9
		l-0.2,73.8l-4.7-0.6V979.2z M641.9,987.8h6.3v6.6h-6.3V987.8z M628,987.8h6.3v6.6H628V987.8z M628,973.4h6.3v6.6H628V973.4z
		 M613.3,987.8h6.3v6.6h-6.3V987.8z M613.3,973.4h6.3v6.6h-6.3V973.4z M599.2,973.4h6.3v6.6h-6.3V973.4z M541.2,1037.7h8.9v9.3h-8.9
		V1037.7z M541.2,1020.8h8.9v9.3h-8.9V1020.8z M541.2,1007.3h8.9v9.3h-8.9V1007.3z M541.2,992h8.9v9.3h-8.9V992z M541.2,976.9h8.9
		v9.3h-8.9V976.9z M533,965.2h-11.6v-48.4l11.6-12.1V965.2z M520.4,1020.8h8.9v9.3h-8.9V1020.8z M520.4,1007.3h8.9v9.3h-8.9V1007.3z
		 M520.4,992h8.9v9.3h-8.9V992z M520.4,976.9h8.9v9.3h-8.9V976.9z M500.5,1020.8h8.9v9.3h-8.9V1020.8z M500.5,1007.3h8.9v9.3h-8.9
		V1007.3z M500.5,992h8.9v9.3h-8.9V992z M500.5,976.9h8.9v9.3h-8.9V976.9z"/>
</g>
</svg>
