<svg xmlns="http://www.w3.org/2000/svg" id="Capa_1" enable-background="new 0 0 512 512" height="60" viewBox="0 0 512 512" width="60"><g><path d="m81.486 73.158 12.371 25.067c1.54 3.12 4.516 5.282 7.958 5.782l27.663 4.02c8.669 1.26 12.131 11.914 5.858 18.029l-20.017 19.512c-2.491 2.428-3.628 5.927-3.04 9.356l4.725 27.551c1.481 8.634-7.582 15.219-15.336 11.142l-24.742-13.008c-3.079-1.619-6.758-1.619-9.837 0l-24.742 13.008c-7.754 4.077-16.817-2.508-15.336-11.142l4.725-27.551c.588-3.429-.549-6.927-3.04-9.356l-20.016-19.514c-6.273-6.115-2.812-16.769 5.858-18.029l27.663-4.02c3.443-.5 6.419-2.662 7.958-5.782l12.371-25.067c3.877-7.854 15.079-7.854 18.956.002z" fill="#f4dd45" data-original="#F4DD45" class="" style="fill:#73B7FF" data-old_color="#f4dd45"></path><path d="m129.478 108.026-24.534-3.565c-7.416 29.763-34.314 51.82-66.373 51.82-2.366 0-4.703-.12-7.007-.355l-4.553 26.547c-1.481 8.634 7.582 15.219 15.336 11.142l24.742-13.008c3.079-1.619 6.758-1.619 9.837 0l24.742 13.008c7.754 4.077 16.817-2.508 15.336-11.142l-4.725-27.551c-.588-3.429.549-6.927 3.04-9.356l20.017-19.512c6.273-6.115 2.811-16.768-5.858-18.028z" fill="#ecc32e" data-original="#ECC32E" class="" style="fill:#1684B4" data-old_color="#ecc32e"></path><path d="m449.471 73.158 12.371 25.067c1.54 3.12 4.516 5.282 7.958 5.782l27.663 4.02c8.669 1.26 12.131 11.914 5.858 18.029l-20.017 19.512c-2.491 2.428-3.628 5.927-3.04 9.356l4.725 27.551c1.481 8.634-7.582 15.219-15.336 11.142l-24.742-13.008c-3.079-1.619-6.758-1.619-9.837 0l-24.742 13.008c-7.754 4.077-16.817-2.508-15.336-11.142l4.725-27.551c.588-3.429-.549-6.927-3.04-9.356l-20.017-19.512c-6.273-6.115-2.812-16.769 5.858-18.029l27.663-4.02c3.443-.5 6.419-2.662 7.958-5.782l12.371-25.067c3.877-7.856 15.079-7.856 18.957 0z" fill="#e2dfe2" data-original="#E2DFE2" class="active-path" style="fill:#F7562E" data-old_color="#e2dfe2"></path><path d="m497.463 108.026-24.534-3.565c-7.416 29.763-34.314 51.82-66.373 51.82-2.366 0-4.703-.12-7.007-.355l-4.553 26.547c-1.481 8.634 7.582 15.219 15.336 11.142l24.742-13.008c3.079-1.619 6.758-1.619 9.837 0l24.742 13.008c7.754 4.077 16.817-2.508 15.336-11.142l-4.725-27.551c-.588-3.429.549-6.927 3.04-9.356l20.017-19.512c6.273-6.115 2.811-16.768-5.858-18.028z" fill="#d3ced5" data-original="#D3CED5" class="" style="fill:#F81416" data-old_color="#d3ced5"></path><path d="m265.478 5.892 12.371 25.067c1.54 3.12 4.516 5.282 7.958 5.782l27.663 4.02c8.669 1.26 12.131 11.914 5.858 18.029l-20.017 19.51c-2.491 2.428-3.628 5.927-3.04 9.356l4.725 27.551c1.481 8.634-7.582 15.219-15.336 11.142l-24.742-13.008c-3.079-1.619-6.758-1.619-9.837 0l-24.742 13.008c-7.754 4.077-16.817-2.508-15.336-11.142l4.725-27.551c.588-3.429-.549-6.927-3.04-9.356l-20.017-19.512c-6.273-6.115-2.812-16.769 5.858-18.029l27.663-4.02c3.443-.5 6.419-2.662 7.958-5.782l12.371-25.067c3.878-7.854 15.08-7.854 18.957.002z" fill="#f4dd45" data-original="#F4DD45" class="" style="fill:#73B7FF" data-old_color="#f4dd45"></path><path d="m313.47 40.76-24.534-3.565c-7.416 29.763-34.314 51.82-66.373 51.82-2.366 0-4.703-.12-7.007-.355l-4.553 26.547c-1.481 8.634 7.582 15.219 15.336 11.142l24.742-13.008c3.079-1.619 6.758-1.619 9.837 0l24.742 13.008c7.754 4.077 16.817-2.508 15.336-11.142l-4.725-27.551c-.588-3.429.549-6.927 3.04-9.356l20.017-19.512c6.273-6.114 2.812-16.768-5.858-18.028z" fill="#ecc32e" data-original="#ECC32E" class="" style="fill:#1684B4" data-old_color="#ecc32e"></path><path d="m403.701 288.035c-13.563 0-24.557 10.995-24.557 24.557v-21.608c0-13.563-10.995-24.557-24.557-24.557-13.563 0-24.557 10.995-24.557 24.557v-21.354c0-13.563-10.995-24.557-24.557-24.557-13.563 0-24.557 10.995-24.557 24.557v-74.74c0-13.563-10.995-24.557-24.557-24.557-13.563 0-24.557 10.995-24.557 24.557v154.06c0 3.564-4.309 5.348-6.828 2.828l-16.127-16.127c-9.73-9.73-25.505-9.73-35.234 0-9.73 9.73-9.73 25.505 0 35.234l61.106 82.795c1.342 1.818 2.065 4.017 2.065 6.277v41.473c0 5.837 4.732 10.57 10.57 10.57h158.593c5.837 0 10.57-4.732 10.57-10.57v-34.274l7.923-28.811c2.536-9.223 3.822-18.745 3.822-28.311v-97.442c-.004-13.563-10.998-24.557-24.561-24.557z" fill="#f1d0a5" data-original="#F1D0A5" class="" style="fill:#FEC9A3" data-old_color="#f1d0a5"></path><g fill="#f1b986"><path d="m260.985 194.89v122.787c0 5.897 4.78 10.677 10.677 10.677h5.024c2.335 0 4.228-1.893 4.228-4.228v-129.236c0-13.563-10.995-24.557-24.557-24.557-3.549 0-6.918.759-9.965 2.113 8.596 3.822 14.593 12.43 14.593 22.444z" data-original="#F1B986" class="" style="fill:#FFAC88" data-old_color="#F1B986"></path><path d="m310.1 269.63v48.047c0 5.897 4.78 10.677 10.677 10.677h5.024c2.335 0 4.228-1.893 4.228-4.228v-54.496c0-13.563-10.995-24.557-24.557-24.557-3.549 0-6.918.759-9.965 2.113 8.596 3.822 14.593 12.43 14.593 22.444z" data-original="#F1B986" class="" style="fill:#FFAC88" data-old_color="#F1B986"></path><path d="m359.214 290.984v26.693c0 5.897 4.78 10.677 10.677 10.677h5.024c2.335 0 4.228-1.893 4.228-4.228v-33.142c0-13.563-10.995-24.557-24.557-24.557-3.549 0-6.918.759-9.965 2.113 8.596 3.822 14.593 12.43 14.593 22.444z" data-original="#F1B986" class="" style="fill:#FFAC88" data-old_color="#F1B986"></path><path d="m403.701 288.035c-3.549 0-6.918.759-9.965 2.113 8.596 3.822 14.593 12.43 14.593 22.444v97.442c0 9.566-1.285 19.088-3.822 28.311l-7.923 28.811v44.844h9.36c5.837 0 10.57-4.732 10.57-10.57v-34.274l7.923-28.811c2.536-9.223 3.822-18.745 3.822-28.311v-97.442c-.001-13.563-10.995-24.557-24.558-24.557z" data-original="#F1B986" class="" style="fill:#FFAC88" data-old_color="#F1B986"></path></g></g> </svg>