<?xml version="1.0" encoding="iso-8859-1"?>
<!-- Generator: Adobe Illustrator 19.0.0, SVG Export Plug-In . SVG Version: 6.00 Build 0)  -->
<svg xmlns="http://www.w3.org/2000/svg" xmlns:xlink="http://www.w3.org/1999/xlink" version="1.1" id="Layer_1" x="0px" y="0px" viewBox="0 0 512 512" style="enable-background:new 0 0 512 512;" xml:space="preserve" width="15px" height="15px">
<g>
	<g>
		<path d="M119.467,0C78.688,0,45.511,33.176,45.511,73.956v364.089c0,40.779,33.176,73.956,73.956,73.956h347.022V381.156v-17.067    V0H119.467z M432.356,477.867H119.467c-21.958,0-39.822-17.864-39.822-39.822c0-21.958,17.864-39.822,39.822-39.822h312.889    V477.867z M432.356,364.089H119.467c-14.656,0-28.317,4.303-39.822,11.686V73.956c0-21.958,17.864-39.822,39.822-39.822h312.889    V364.089z" fill="#1D71B1"/>
	</g>
</g>
<g>
	<g>
		<rect x="136.533" y="85.333" width="34.133" height="227.556" fill="#1D71B1"/>
	</g>
</g>
<g>
	<g>
		<rect x="233.244" y="113.778" width="136.533" height="34.133" fill="#1D71B1"/>
	</g>
</g>
<g>
	<g>
		<rect x="233.244" y="182.044" width="136.533" height="34.133" fill="#1D71B1"/>
	</g>
</g>
<g>
</g>
<g>
</g>
<g>
</g>
<g>
</g>
<g>
</g>
<g>
</g>
<g>
</g>
<g>
</g>
<g>
</g>
<g>
</g>
<g>
</g>
<g>
</g>
<g>
</g>
<g>
</g>
<g>
</g>
</svg>
